<?xml version="1.0" standalone="no"?><!DOCTYPE svg PUBLIC "-//W3C//DTD SVG 1.1//EN" "http://www.w3.org/Graphics/SVG/1.1/DTD/svg11.dtd"><svg t="1513582096149" class="icon" style="" viewBox="0 0 1024 1024" version="1.1" xmlns="http://www.w3.org/2000/svg" p-id="2404" xmlns:xlink="http://www.w3.org/1999/xlink" width="32" height="32"><defs><style type="text/css"></style></defs><path d="M556.997625 523.066983c94.495012-20.431354 165.639905-104.589074 165.639905-205.164845 0-115.777672-94.251781-210.029454-210.029454-210.029454s-210.029454 94.251781-210.029454 210.029454c0 100.575772 71.023278 184.733492 165.639905 205.164845-163.694062 25.904038-299.051781 190.571021-299.051781 376.763896 0 9.729216 7.783373 17.512589 17.512589 17.512589s17.512589-7.783373 17.512589-17.512589c0-180.96342 147.032779-345.630404 308.416152-345.630404s308.416152 164.788599 308.416152 345.630404c0 9.729216 7.783373 17.512589 17.512589 17.512589s17.512589-7.783373 17.512589-17.512589c0-186.192874-135.35772-350.859857-299.051781-376.763896zM337.6038 317.902138c0-96.440855 78.56342-175.004276 175.004276-175.004276S687.612352 221.339667 687.612352 317.902138s-78.56342 175.004276-175.004276 175.004275-175.004276-78.56342-175.004276-175.004275z" p-id="2405" fill="#8a8a8a"></path></svg>