<?xml version="1.0" standalone="no"?><!DOCTYPE svg PUBLIC "-//W3C//DTD SVG 1.1//EN" "http://www.w3.org/Graphics/SVG/1.1/DTD/svg11.dtd"><svg t="1513606573397" class="icon" style="" viewBox="0 0 1024 1024" version="1.1" xmlns="http://www.w3.org/2000/svg" p-id="5225" xmlns:xlink="http://www.w3.org/1999/xlink" width="32" height="32"><defs><style type="text/css"></style></defs><path d="M512 1023.997952a295.01381 295.01381 0 0 1-216.882766-94.463811c-58.009484-61.747077-89.95822-146.380507-89.95822-238.335523 0-150.681299 66.969466-258.508283 137.881324-372.632855C397.824228 230.348339 454.502515 139.161322 487.270449 18.892762a25.548749 25.548749 0 0 1 49.356702 0c32.819134 120.319759 89.548621 211.557977 144.434911 299.775401 71.014258 114.124572 138.086124 221.951556 138.086124 372.581655 0 92.108616-31.743937 176.742047-89.395022 238.284323a295.628209 295.628209 0 0 1-217.804364 94.515011z m0-915.812568c-34.508731 90.931018-80.588639 165.11967-125.439749 237.362725-69.83666 112.434975-130.20134 209.561181-130.20134 345.650509 0 160.562879 109.92618 281.599437 255.641089 281.599436 145.919708 0 255.999488-121.036558 255.999488-281.599436 0-136.038128-60.415879-233.113134-130.354939-345.548109C592.691039 273.407453 546.508731 199.167602 512 108.185384z" fill="#8a8a8a" p-id="5226"></path></svg>