<?xml version="1.0" standalone="no"?><!DOCTYPE svg PUBLIC "-//W3C//DTD SVG 1.1//EN" "http://www.w3.org/Graphics/SVG/1.1/DTD/svg11.dtd"><svg t="1513605152105" class="icon" style="" viewBox="0 0 1024 1024" version="1.1" xmlns="http://www.w3.org/2000/svg" p-id="3542" xmlns:xlink="http://www.w3.org/1999/xlink" width="32" height="32"><defs><style type="text/css"></style></defs><path d="M890.765829 1020.408098H133.284971c-49.670876 0-93.389457-26.066947-116.993386-69.682903-23.603929-43.718581-21.448787-94.51834 5.747044-136.081779l337.330928-515.386651V26.887953c0-12.828222 10.467829-23.296051 23.296051-23.296051h258.719583c12.828222 0 23.296051 10.365203 23.296052 23.296051v272.368812l337.433554 515.489276c27.195831 41.56344 29.248346 92.363199 5.644417 136.08178-23.603929 43.513329-67.32251 69.580277-116.993385 69.580277zM405.96166 50.184005v256.051313c0 4.515534-1.334135 8.928443-3.797154 12.725596L61.036424 840.197234c-17.651634 26.990579-19.088394 60.036079-3.694528 88.360794 15.291241 28.324714 43.718581 45.257968 76.045701 45.257967H890.868455c32.224494 0 60.651834-16.933253 76.0457-45.257967 15.291241-28.42734 13.957106-61.47284-3.694528-88.46342L621.98892 318.858288c-2.463019-3.797154-3.797154-8.210062-3.797154-12.725596V50.184005H405.96166z" p-id="3543" fill="#8a8a8a"></path><path d="M690.132435 50.184005h-356.111445c-12.828222 0-23.296051-10.365203-23.296051-23.296052s10.467829-23.296051 23.296051-23.296051h356.111445c12.828222 0 23.296051 10.365203 23.296052 23.296051s-10.467829 23.296051-23.296052 23.296052z" p-id="3544" fill="#8a8a8a"></path><path d="M845.097358 647.055522H174.848411c-12.828222 0-23.296051-10.365203-23.296052-23.296051s10.467829-23.296051 23.296052-23.296051h670.248947c12.828222 0 23.296051 10.365203 23.296052 23.296051s-10.467829 23.296051-23.296052 23.296051z" p-id="3545" fill="#8a8a8a"></path></svg>