<?xml version="1.0" standalone="no"?><!DOCTYPE svg PUBLIC "-//W3C//DTD SVG 1.1//EN" "http://www.w3.org/Graphics/SVG/1.1/DTD/svg11.dtd"><svg t="1513577734026" class="icon" style="" viewBox="0 0 1110 1024" version="1.1" xmlns="http://www.w3.org/2000/svg" p-id="1004" xmlns:xlink="http://www.w3.org/1999/xlink" width="34.6875" height="32"><defs><style type="text/css"></style></defs><path d="M1045.799033 528.957174 586.568905 64.159973c-27.94201-28.155307-36.047325-28.155307-63.989335 0L63.349442 528.957174l-31.674721-31.930678L503.958674 21.116481c27.963339-28.155307 73.267789-28.155307 101.209798 0l472.326612 475.910015L1045.799033 528.957174zM200.627895 917.351108c0 23.569405 19.111481 42.659557 42.659557 42.659557l622.573571 0c23.548075 0 42.659557-19.090152 42.659557-42.659557L908.52058 576.074654l40.654558 0 0 341.276454c0 47.11748-38.201633 85.319113-85.319113 85.319113l-618.563573 0c-47.11748 0-85.319113-38.201633-85.319113-85.319113L159.973338 576.074654l40.654558 0L200.627895 917.351108z" p-id="1005" fill="#8a8a8a"></path></svg>